<svg width="513" height="39" viewBox="0 0 513 39" fill="none" xmlns="http://www.w3.org/2000/svg">
<path d="M531.649 13.7108C521.049 13.7369 511.979 14.5275 501.891 17.36C498.199 18.4026 494.576 19.6798 491.031 21.1221C491.031 21.1221 489.38 21.8084 490.31 21.4175C491.231 21.0352 489.615 21.7216 489.606 21.7216C488.798 22.0778 487.981 22.434 487.182 22.7989C485.583 23.5201 484.002 24.2499 482.412 24.9884C475.235 28.3074 468.006 31.5656 460.395 33.7637C450.647 36.5788 440.421 37.7778 430.299 38.0037C419.169 38.2556 407.874 37.465 397.022 34.8758C389.246 33.0252 381.843 30.0451 374.58 26.7435C371.313 25.2578 368.072 23.7112 364.788 22.2602C364.058 21.9388 363.319 21.6173 362.581 21.3045C363.988 21.904 361.512 20.8701 361.121 20.7224C359.192 19.9578 357.246 19.2454 355.274 18.5937C346.238 15.6136 337.88 14.3103 328.757 13.8846C317.679 13.3633 306.966 13.8325 296.679 16.1349C292.735 17.0211 288.842 18.1593 285.045 19.5408C283.316 20.1663 281.596 20.844 279.893 21.5565C281.231 21.0004 279.129 21.8953 278.738 22.0604C277.851 22.4514 276.965 22.8511 276.079 23.2507C269.05 26.4481 262.091 29.8366 254.766 32.3475C245.826 35.4145 236.46 37.0219 227.05 37.6996C215.416 38.5424 203.591 38.0645 192.105 35.988C183.843 34.4936 176.006 31.7915 168.308 28.4812C165.084 27.091 161.904 25.5966 158.716 24.1283C157.117 23.3897 155.518 22.6599 153.911 21.9562C153.503 21.7737 153.094 21.5999 152.686 21.4262C151.695 21.0004 154.128 22.0083 152.503 21.348C151.487 20.9396 150.462 20.5226 149.436 20.1316C141.608 17.1515 132.755 15.101 125.196 14.3625C119.374 13.789 113.51 13.6326 107.662 13.7717C102.206 13.8933 96.576 14.319 91.8755 15.101C87.6182 15.8047 83.413 16.7952 79.2947 18.0637C77.5483 18.6024 75.8106 19.2019 74.099 19.8362C73.2302 20.1576 72.37 20.4878 71.5098 20.8353C71.0841 21.0004 70.6671 21.1829 70.2414 21.348C68.5558 22.0257 71.4577 20.8093 69.8069 21.5304C62.8909 24.554 56.1313 27.9251 49.1024 30.688C40.7354 33.9896 32.0905 35.9793 23.1761 37.0827C17.5721 37.7778 11.9333 38.0384 6.29449 38.0558C-2.08984 38.0819 -2.10724 25.0492 6.29449 25.0232C16.8943 24.9971 25.9651 24.2065 36.0523 21.374C39.7449 20.3314 43.368 19.0542 46.9216 17.6119C46.9216 17.6119 48.5724 16.9256 47.6427 17.3165C46.7218 17.6988 48.3378 17.0124 48.3465 17.0124C49.1545 16.6562 49.9712 16.3 50.7705 15.9351C52.3692 15.2139 53.9506 14.4841 55.5405 13.7456C62.7172 10.4266 69.9459 7.16844 77.557 4.97027C87.3054 2.15522 97.5317 0.956216 107.662 0.730317C118.792 0.478353 130.087 1.269 140.939 3.85815C148.715 5.70879 156.118 8.68892 163.381 11.9905C166.648 13.4762 169.889 15.0228 173.173 16.4738C173.903 16.7952 174.642 17.1167 175.38 17.4295C173.973 16.83 176.449 17.8639 176.84 18.0116C178.769 18.7762 180.715 19.4886 182.687 20.1403C191.723 23.1204 200.081 24.4237 209.204 24.8494C220.282 25.3707 230.995 24.9015 241.282 22.5991C245.226 21.7129 249.119 20.5747 252.916 19.1932C254.645 18.5677 256.365 17.89 258.068 17.1775C256.73 17.7336 258.832 16.8387 259.223 16.6736C260.11 16.2826 260.996 15.8829 261.882 15.4833C268.911 12.2859 275.87 8.89744 283.195 6.38649C292.135 3.31947 301.501 1.71211 310.911 1.03441C322.545 0.191634 334.37 0.669498 345.856 2.74603C354.118 4.24044 361.955 6.94255 369.653 10.2528C372.877 11.643 376.057 13.1374 379.245 14.6057C380.844 15.3443 382.443 16.0741 384.05 16.7778C384.458 16.9603 384.867 17.1341 385.275 17.3078C386.266 17.7336 383.833 16.7257 385.458 17.386C386.474 17.7944 387.499 18.2114 388.525 18.6024C396.353 21.5826 405.206 23.633 412.757 24.3715C418.578 24.945 424.443 25.1014 430.281 24.9623C435.738 24.8407 441.368 24.415 446.059 23.633C450.317 22.9293 454.522 21.9388 458.64 20.6703C460.387 20.1316 462.116 19.5321 463.836 18.8978C464.705 18.5764 465.565 18.2462 466.425 17.8987C466.851 17.7336 467.268 17.5511 467.694 17.386C469.379 16.7083 466.477 17.9247 468.128 17.2036C475.044 14.18 481.804 10.8089 488.824 8.04598C497.191 4.74437 505.836 2.75472 514.75 1.65129C520.354 0.956216 525.993 0.695563 531.632 0.678186C540.033 0.66081 540.042 13.6935 531.649 13.7108Z" fill="#F9CA47"/>
</svg>
