<svg width="513" height="39" viewBox="0 0 513 39" fill="none" xmlns="http://www.w3.org/2000/svg">
<path d="M-18.7107 13.7108C-8.11077 13.7369 0.959948 14.5275 11.0472 17.36C14.7398 18.4026 18.3629 19.6798 21.9078 21.1221C21.9078 21.1221 23.5586 21.8084 22.6289 21.4175C21.7079 21.0352 23.324 21.7216 23.3327 21.7216C24.1407 22.0778 24.9574 22.434 25.7567 22.7989C27.3554 23.5201 28.9367 24.2499 30.5267 24.9884C37.7033 28.3074 44.9321 31.5656 52.5432 33.7637C62.2916 36.5788 72.5179 37.7778 82.6399 38.0037C93.7698 38.2556 105.065 37.465 115.917 34.8758C123.693 33.0252 131.095 30.0451 138.359 26.7435C141.626 25.2578 144.866 23.7112 148.151 22.2602C148.88 21.9388 149.619 21.6173 150.357 21.3045C148.95 21.904 151.426 20.8701 151.817 20.7224C153.746 19.9578 155.692 19.2454 157.664 18.5937C166.7 15.6136 175.059 14.3103 184.182 13.8846C195.259 13.3633 205.972 13.8325 216.259 16.1349C220.204 17.0211 224.096 18.1593 227.893 19.5408C229.622 20.1663 231.342 20.844 233.045 21.5565C231.707 21.0004 233.81 21.8953 234.201 22.0604C235.087 22.4514 235.973 22.8511 236.86 23.2507C243.888 26.4481 250.848 29.8366 258.172 32.3475C267.113 35.4145 276.479 37.0219 285.888 37.6996C297.522 38.5424 309.347 38.0645 320.833 35.988C329.096 34.4936 336.933 31.7915 344.631 28.4812C347.854 27.091 351.034 25.5966 354.223 24.1283C355.822 23.3897 357.42 22.6599 359.028 21.9562C359.436 21.7737 359.844 21.5999 360.253 21.4262C361.243 21.0004 358.81 22.0083 360.435 21.348C361.452 20.9396 362.477 20.5226 363.502 20.1316C371.33 17.1515 380.184 15.101 387.743 14.3625C393.564 13.789 399.429 13.6326 405.276 13.7717C410.732 13.8933 416.363 14.319 421.063 15.101C425.32 15.8047 429.525 16.7952 433.644 18.0637C435.39 18.6024 437.128 19.2019 438.839 19.8362C439.708 20.1576 440.568 20.4878 441.429 20.8353C441.854 21.0004 442.271 21.1829 442.697 21.348C444.383 22.0257 441.481 20.8093 443.132 21.5304C450.048 24.554 456.807 27.9251 463.836 30.688C472.203 33.9896 480.848 35.9793 489.762 37.0827C495.366 37.7778 501.005 38.0384 506.644 38.0558C515.028 38.0819 515.046 25.0492 506.644 25.0232C496.044 24.9971 486.973 24.2065 476.886 21.374C473.194 20.3314 469.57 19.0542 466.017 17.6119C466.017 17.6119 464.366 16.9256 465.296 17.3165C466.217 17.6988 464.601 17.0124 464.592 17.0124C463.784 16.6562 462.967 16.3 462.168 15.9351C460.569 15.2139 458.988 14.4841 457.398 13.7456C450.221 10.4266 442.993 7.16844 435.381 4.97027C425.633 2.15522 415.407 0.956216 405.276 0.730317C394.146 0.478353 382.851 1.269 371.999 3.85815C364.223 5.70879 356.821 8.68892 349.557 11.9905C346.29 13.4762 343.049 15.0228 339.765 16.4738C339.035 16.7952 338.297 17.1167 337.558 17.4295C338.966 16.83 336.49 17.8639 336.099 18.0116C334.17 18.7762 332.224 19.4886 330.251 20.1403C321.215 23.1204 312.857 24.4237 303.734 24.8494C292.657 25.3707 281.944 24.9015 271.657 22.5991C267.712 21.7129 263.82 20.5747 260.023 19.1932C258.294 18.5677 256.574 17.89 254.871 17.1775C256.209 17.7336 254.106 16.8387 253.715 16.6736C252.829 16.2826 251.943 15.8829 251.056 15.4833C244.027 12.2859 237.068 8.89744 229.744 6.38649C220.803 3.31947 211.437 1.71211 202.028 1.03441C190.394 0.191634 178.569 0.669498 167.083 2.74603C158.82 4.24044 150.983 6.94255 143.285 10.2528C140.062 11.643 136.882 13.1374 133.693 14.6057C132.094 15.3443 130.496 16.0741 128.888 16.7778C128.48 16.9603 128.072 17.1341 127.663 17.3078C126.673 17.7336 129.106 16.7257 127.481 17.386C126.464 17.7944 125.439 18.2114 124.414 18.6024C116.586 21.5826 107.732 23.633 100.182 24.3715C94.3606 24.945 88.4959 25.1014 82.6573 24.9623C77.2009 24.8407 71.5708 24.415 66.8791 23.633C62.6217 22.9293 58.4165 21.9388 54.2982 20.6703C52.5518 20.1316 50.8228 19.5321 49.1025 18.8978C48.2337 18.5764 47.3735 18.2462 46.5134 17.8987C46.0877 17.7336 45.6706 17.5511 45.2449 17.386C43.5593 16.7083 46.4613 17.9247 44.8105 17.2036C37.8945 14.18 31.1349 10.8089 24.1146 8.04598C15.7477 4.74437 7.10267 2.75472 -1.81166 1.65129C-7.4157 0.956216 -13.0545 0.695563 -18.6933 0.678186C-27.095 0.66081 -27.1037 13.6935 -18.7107 13.7108Z" fill="#F9CA47"/>
</svg>
